<svg xmlns="http://www.w3.org/2000/svg" version="1.1" xmlns:xlink="http://www.w3.org/1999/xlink" xmlns:svgjs="http://svgjs.com/svgjs" width="1440" height="560" preserveAspectRatio="none" viewBox="0 0 1440 560"><g mask="url(&quot;#SvgjsMask1530&quot;)" fill="none"><rect width="1440" height="560" x="0" y="0" fill="url(#SvgjsLinearGradient1531)"></rect><use xlink:href="#SvgjsG1538" transform="translate(0, 0)" fill="rgba(101, 99, 84, 1)"></use><use xlink:href="#SvgjsG1538" transform="translate(0, 480)" fill="rgba(101, 99, 84, 1)"></use><use xlink:href="#SvgjsG1538" transform="translate(480, 0)" fill="rgba(101, 99, 84, 1)"></use><use xlink:href="#SvgjsG1538" transform="translate(480, 480)" fill="rgba(101, 99, 84, 1)"></use><use xlink:href="#SvgjsG1538" transform="translate(960, 0)" fill="rgba(101, 99, 84, 1)"></use><use xlink:href="#SvgjsG1538" transform="translate(960, 480)" fill="rgba(101, 99, 84, 1)"></use></g><defs><mask id="SvgjsMask1530"><rect width="1440" height="560" fill="#ffffff"></rect></mask><linearGradient x1="15.28%" y1="-39.29%" x2="84.72%" y2="139.29%" gradientUnits="userSpaceOnUse" id="SvgjsLinearGradient1531"><stop stop-color="rgba(158, 110, 0, 1)" offset="0.91"></stop><stop stop-color="rgba(158, 110, 0, 1)" offset="1"></stop></linearGradient><g id="SvgjsG1533"><path d="M6.498 9.304L12.139 3.663l1.565 1.566-5.641 5.641z"></path><path d="M6.8 0.457h2.541v8.028H6.8z"></path><path d="M8.072 10.876L2.429 5.238l1.563-1.566L9.636 9.313zM1.2 13.277h13.733v2.266H1.2z"></path><path d="M0.733 9.143h2.267v6.4h-2.267z m12.267 0h2.267v6.4h-2.267z"></path></g><g id="SvgjsG1534"><path d="M3.474 10.969C3.474 7.665 8.077 0.361 8.077 0.361s4.602 7.305 4.602 10.608c0 2.247-1.506 4.771-4.602 4.771-3.095 0-4.603-2.524-4.603-4.771z" fill-rule="evenodd"></path></g><g id="SvgjsG1537"><path d="M7.713 15.485C3.459 15.485 0 12.025 0 7.768 0 3.513 3.459 0.051 7.713 0.051S15.432 3.513 15.432 7.768c0 4.257-3.465 7.716-7.719 7.717z m0-1.91c3.201 0 5.81-2.604 5.81-5.809 0-3.199-2.61-5.807-5.81-5.807-3.202 0-5.804 2.609-5.804 5.807-0.001 3.206 2.602 5.809 5.804 5.809z"></path><path d="M7.753 8.787a0.574 0.574 0 0 1-0.554-0.042 0.578 0.578 0 0 1-0.259-0.399L6.931 3.862a0.58 0.58 0 0 1 1.162 0v3.478l2.975-1.4a0.578 0.578 0 0 1 0.773 0.275c0.138 0.292 0.011 0.637-0.276 0.774l-3.81 1.798z"></path></g><g id="SvgjsG1532"><path d="M11.986 8.245a46.749 46.749 0 0 1-0.521-0.411c-0.146-0.116-0.293-0.233-0.44-0.348-0.88-0.688-1.797-1.316-2.816-1.407A2.815 2.815 0 0 0 7.954 6.067c-0.086 0-0.171 0.011-0.255 0.018-1.022 0.093-1.942 0.717-2.826 1.408l0.093 0.073c0.108 0.085 0.213 0.168 0.32 0.252C6.165 7.137 7.021 6.576 7.954 6.576c0.93 0 1.784 0.558 2.66 1.236a35.098 35.098 0 0 1 0.535 0.421c0.142 0.113 0.283 0.226 0.426 0.338C12.532 9.32 13.531 10 14.658 10c0.437 0 0.854-0.104 1.257-0.273v-0.557c-0.409 0.197-0.825 0.32-1.257 0.32-0.934 0-1.792-0.563-2.672-1.245z"></path><path d="M11.574 7.496c0.029 0.023 0.059 0.046 0.088 0.07 0.109 0.087 0.216 0.17 0.325 0.256 0.318-0.246 0.635-0.476 0.952-0.67v1.37c0.17 0.111 0.34 0.214 0.51 0.301V6.878c0.315-0.147 0.634-0.248 0.96-0.283v2.537c0.078 0.01 0.157 0.018 0.237 0.018 0.091 0 0.183-0.009 0.273-0.021V6.592c0.34 0.037 0.67 0.144 0.996 0.3V6.336C15.514 6.17 15.099 6.067 14.664 6.067c-1.128 0-2.13 0.68-3.09 1.429z m-7.248 1.08c-0.034-0.027-0.068-0.053-0.102-0.08-0.104-0.083-0.207-0.162-0.31-0.245-0.877 0.678-1.733 1.238-2.665 1.238C0.82 9.49 0.407 9.36 0 9.152v0.562C0.401 9.891 0.815 10 1.249 10c1.124 0 2.122-0.677 3.077-1.423z"></path><path d="M0.989 9.133c0.084 0.011 0.17 0.019 0.254 0.02 0.086 0 0.171-0.008 0.256-0.02V6.592c0.329 0.035 0.65 0.136 0.967 0.285-0.002 0.012-0.007 0.023-0.007 0.036v1.903a5.818 5.818 0 0 0 0.51-0.303V7.152c0.487 0.3 0.971 0.684 1.467 1.08C5.525 9.101 6.652 10 7.948 10c1.123 0 2.121-0.675 3.078-1.42l-0.106-0.084c-0.103-0.082-0.205-0.161-0.306-0.242-0.313 0.242-0.622 0.466-0.934 0.658V7.564A5.816 5.816 0 0 0 9.17 7.261v1.893c0 0.01 0.004 0.019 0.005 0.029-0.316 0.149-0.637 0.252-0.965 0.288V6.937a1.97 1.97 0 0 0-0.267-0.02c-0.082 0-0.163 0.008-0.243 0.017v2.541c-0.33-0.035-0.652-0.136-0.969-0.283 0.002-0.013 0.006-0.024 0.006-0.039V7.248a5.629 5.629 0 0 0-0.51 0.302v1.368c-0.49-0.299-0.976-0.686-1.474-1.083C3.666 6.966 2.539 6.067 1.243 6.067c-0.432 0-0.844 0.096-1.243 0.251v0.55c0.324-0.144 0.652-0.244 0.989-0.278V9.133z"></path></g><g id="SvgjsG1535"><path d="M2.524 8.637H0.014V7.308h2.51v1.329zM3.656 4.576L1.884 2.804l0.935-0.935 1.772 1.772-0.935 0.935z m0 6.817l0.935 0.935-1.772 1.773-0.934-0.936 1.771-1.772z m4.997-8.884h-1.33V-0.002h1.33v2.511z m-1.33 10.952h1.33v2.51h-1.33v-2.509zM12.344 4.576l-0.96-0.935 1.796-1.772 0.935 0.935-1.772 1.772z m0 6.792l1.771 1.797-0.935 0.936-1.771-1.774 0.936-0.96z m3.643-4.06v1.329h-2.51V7.308h2.509z"></path><path d="M3.702 7.984a4.184 4.184 0 1 0 8.368 0 4.184 4.184 0 1 0-8.368 0"></path></g><g id="SvgjsG1536"><path d="M15.233 9.431c0.295 0 0.569-0.239 0.61-0.532 0 0 0.056-0.411 0.056-0.899s-0.056-0.899-0.056-0.899c-0.041-0.292-0.315-0.531-0.61-0.53h-1.524c-0.295 0-0.602-0.188-0.681-0.418s-0.188-0.967 0.021-1.176l1.078-1.077c0.209-0.209 0.225-0.565 0.036-0.792l-1.268-1.268c-0.227-0.189-0.583-0.173-0.792 0.036l-1.078 1.077c-0.208 0.209-0.556 0.293-0.772 0.187s-0.822-0.552-0.821-0.847V0.767c0-0.295-0.239-0.569-0.531-0.61 0 0-0.411-0.057-0.9-0.056s-0.899 0.057-0.899 0.056c-0.293 0.04-0.532 0.315-0.532 0.61v1.524c0 0.295-0.188 0.601-0.418 0.681s-0.967 0.188-1.176-0.021l-1.078-1.078C3.689 1.665 3.333 1.649 3.107 1.837l-1.268 1.268c-0.189 0.227-0.173 0.583 0.036 0.792l1.077 1.078c0.209 0.209 0.293 0.556 0.187 0.772s-0.552 0.822-0.847 0.822H0.767c-0.295 0-0.569 0.239-0.61 0.531 0 0-0.057 0.411-0.056 0.899s0.057 0.899 0.056 0.9c0.04 0.293 0.315 0.532 0.61 0.532h1.525c0.295 0 0.601 0.188 0.681 0.417 0.079 0.23 0.188 0.967-0.02 1.176l-1.078 1.077C1.667 12.311 1.651 12.667 1.84 12.893l1.267 1.268c0.227 0.189 0.583 0.173 0.792-0.036l1.077-1.077c0.209-0.208 0.556-0.292 0.772-0.187s0.821 0.553 0.822 0.848v1.524c0 0.295 0.239 0.569 0.532 0.61 0 0 0.411 0.057 0.899 0.057s0.899-0.056 0.899-0.057c0.293-0.04 0.531-0.315 0.532-0.609v-1.524c0-0.295 0.188-0.602 0.418-0.681 0.23-0.079 0.967-0.188 1.176 0.021l1.077 1.077c0.209 0.209 0.565 0.225 0.792 0.036l1.268-1.267c0.189-0.227 0.173-0.583-0.036-0.792l-1.078-1.077c-0.209-0.209-0.293-0.557-0.186-0.773 0.106-0.216 0.552-0.822 0.847-0.822h1.525zM8 10.892c-1.597 0-2.891-1.294-2.891-2.892 0-1.596 1.295-2.891 2.891-2.891S10.892 6.404 10.892 8 9.597 10.892 8 10.892z"></path></g><g id="SvgjsG1538"><use xlink:href="#SvgjsG1532" transform="translate(0, 0) scale(2)" fill="rgba(101, 99, 84, 1)"></use><use xlink:href="#SvgjsG1533" transform="translate(0, 48) scale(2)" fill="rgba(101, 99, 84, 1)"></use><use xlink:href="#SvgjsG1534" transform="translate(0, 96) scale(2)" fill="rgba(101, 99, 84, 1)"></use><use xlink:href="#SvgjsG1534" transform="translate(0, 144) scale(2)" fill="rgba(101, 99, 84, 1)"></use><use xlink:href="#SvgjsG1533" transform="translate(0, 192) scale(2)" fill="rgba(101, 99, 84, 1)"></use><use xlink:href="#SvgjsG1534" transform="translate(0, 240) scale(2)" fill="rgba(101, 99, 84, 1)"></use><use xlink:href="#SvgjsG1532" transform="translate(0, 288) scale(2)" fill="rgba(101, 99, 84, 1)"></use><use xlink:href="#SvgjsG1533" transform="translate(0, 336) scale(2)" fill="rgba(101, 99, 84, 1)"></use><use xlink:href="#SvgjsG1535" transform="translate(0, 384) scale(2)" fill="rgba(101, 99, 84, 1)"></use><use xlink:href="#SvgjsG1535" transform="translate(0, 432) scale(2)" fill="rgba(101, 99, 84, 1)"></use><use xlink:href="#SvgjsG1536" transform="translate(48, 0) scale(2)" fill="rgba(101, 99, 84, 1)"></use><use xlink:href="#SvgjsG1534" transform="translate(48, 48) scale(2)" fill="rgba(101, 99, 84, 1)"></use><use xlink:href="#SvgjsG1532" transform="translate(48, 96) scale(2)" fill="rgba(101, 99, 84, 1)"></use><use xlink:href="#SvgjsG1532" transform="translate(48, 144) scale(2)" fill="rgba(101, 99, 84, 1)"></use><use xlink:href="#SvgjsG1534" transform="translate(48, 192) scale(2)" fill="rgba(101, 99, 84, 1)"></use><use xlink:href="#SvgjsG1532" transform="translate(48, 240) scale(2)" fill="rgba(101, 99, 84, 1)"></use><use xlink:href="#SvgjsG1536" transform="translate(48, 288) scale(2)" fill="rgba(101, 99, 84, 1)"></use><use xlink:href="#SvgjsG1533" transform="translate(48, 336) scale(2)" fill="rgba(101, 99, 84, 1)"></use><use xlink:href="#SvgjsG1534" transform="translate(48, 384) scale(2)" fill="rgba(101, 99, 84, 1)"></use><use xlink:href="#SvgjsG1535" transform="translate(48, 432) scale(2)" fill="rgba(101, 99, 84, 1)"></use><use xlink:href="#SvgjsG1535" transform="translate(96, 0) scale(2)" fill="rgba(101, 99, 84, 1)"></use><use xlink:href="#SvgjsG1537" transform="translate(96, 48) scale(2)" fill="rgba(101, 99, 84, 1)"></use><use xlink:href="#SvgjsG1532" transform="translate(96, 96) scale(2)" fill="rgba(101, 99, 84, 1)"></use><use xlink:href="#SvgjsG1536" transform="translate(96, 144) scale(2)" fill="rgba(101, 99, 84, 1)"></use><use xlink:href="#SvgjsG1534" transform="translate(96, 192) scale(2)" fill="rgba(101, 99, 84, 1)"></use><use xlink:href="#SvgjsG1532" transform="translate(96, 240) scale(2)" fill="rgba(101, 99, 84, 1)"></use><use xlink:href="#SvgjsG1532" transform="translate(96, 288) scale(2)" fill="rgba(101, 99, 84, 1)"></use><use xlink:href="#SvgjsG1537" transform="translate(96, 336) scale(2)" fill="rgba(101, 99, 84, 1)"></use><use xlink:href="#SvgjsG1532" transform="translate(96, 384) scale(2)" fill="rgba(101, 99, 84, 1)"></use><use xlink:href="#SvgjsG1533" transform="translate(96, 432) scale(2)" fill="rgba(101, 99, 84, 1)"></use><use xlink:href="#SvgjsG1535" transform="translate(144, 0) scale(2)" fill="rgba(101, 99, 84, 1)"></use><use xlink:href="#SvgjsG1534" transform="translate(144, 48) scale(2)" fill="rgba(101, 99, 84, 1)"></use><use xlink:href="#SvgjsG1537" transform="translate(144, 96) scale(2)" fill="rgba(101, 99, 84, 1)"></use><use xlink:href="#SvgjsG1537" transform="translate(144, 144) scale(2)" fill="rgba(101, 99, 84, 1)"></use><use xlink:href="#SvgjsG1533" transform="translate(144, 192) scale(2)" fill="rgba(101, 99, 84, 1)"></use><use xlink:href="#SvgjsG1534" transform="translate(144, 240) scale(2)" fill="rgba(101, 99, 84, 1)"></use><use xlink:href="#SvgjsG1535" transform="translate(144, 288) scale(2)" fill="rgba(101, 99, 84, 1)"></use><use xlink:href="#SvgjsG1533" transform="translate(144, 336) scale(2)" fill="rgba(101, 99, 84, 1)"></use><use xlink:href="#SvgjsG1535" transform="translate(144, 384) scale(2)" fill="rgba(101, 99, 84, 1)"></use><use xlink:href="#SvgjsG1535" transform="translate(144, 432) scale(2)" fill="rgba(101, 99, 84, 1)"></use><use xlink:href="#SvgjsG1534" transform="translate(192, 0) scale(2)" fill="rgba(101, 99, 84, 1)"></use><use xlink:href="#SvgjsG1535" transform="translate(192, 48) scale(2)" fill="rgba(101, 99, 84, 1)"></use><use xlink:href="#SvgjsG1535" transform="translate(192, 96) scale(2)" fill="rgba(101, 99, 84, 1)"></use><use xlink:href="#SvgjsG1534" transform="translate(192, 144) scale(2)" fill="rgba(101, 99, 84, 1)"></use><use xlink:href="#SvgjsG1534" transform="translate(192, 192) scale(2)" fill="rgba(101, 99, 84, 1)"></use><use xlink:href="#SvgjsG1534" transform="translate(192, 240) scale(2)" fill="rgba(101, 99, 84, 1)"></use><use xlink:href="#SvgjsG1536" transform="translate(192, 288) scale(2)" fill="rgba(101, 99, 84, 1)"></use><use xlink:href="#SvgjsG1535" transform="translate(192, 336) scale(2)" fill="rgba(101, 99, 84, 1)"></use><use xlink:href="#SvgjsG1536" transform="translate(192, 384) scale(2)" fill="rgba(101, 99, 84, 1)"></use><use xlink:href="#SvgjsG1536" transform="translate(192, 432) scale(2)" fill="rgba(101, 99, 84, 1)"></use><use xlink:href="#SvgjsG1536" transform="translate(240, 0) scale(2)" fill="rgba(101, 99, 84, 1)"></use><use xlink:href="#SvgjsG1533" transform="translate(240, 48) scale(2)" fill="rgba(101, 99, 84, 1)"></use><use xlink:href="#SvgjsG1537" transform="translate(240, 96) scale(2)" fill="rgba(101, 99, 84, 1)"></use><use xlink:href="#SvgjsG1534" transform="translate(240, 144) scale(2)" fill="rgba(101, 99, 84, 1)"></use><use xlink:href="#SvgjsG1537" transform="translate(240, 192) scale(2)" fill="rgba(101, 99, 84, 1)"></use><use xlink:href="#SvgjsG1535" transform="translate(240, 240) scale(2)" fill="rgba(101, 99, 84, 1)"></use><use xlink:href="#SvgjsG1535" transform="translate(240, 288) scale(2)" fill="rgba(101, 99, 84, 1)"></use><use xlink:href="#SvgjsG1533" transform="translate(240, 336) scale(2)" fill="rgba(101, 99, 84, 1)"></use><use xlink:href="#SvgjsG1532" transform="translate(240, 384) scale(2)" fill="rgba(101, 99, 84, 1)"></use><use xlink:href="#SvgjsG1534" transform="translate(240, 432) scale(2)" fill="rgba(101, 99, 84, 1)"></use><use xlink:href="#SvgjsG1536" transform="translate(288, 0) scale(2)" fill="rgba(101, 99, 84, 1)"></use><use xlink:href="#SvgjsG1532" transform="translate(288, 48) scale(2)" fill="rgba(101, 99, 84, 1)"></use><use xlink:href="#SvgjsG1533" transform="translate(288, 96) scale(2)" fill="rgba(101, 99, 84, 1)"></use><use xlink:href="#SvgjsG1534" transform="translate(288, 144) scale(2)" fill="rgba(101, 99, 84, 1)"></use><use xlink:href="#SvgjsG1534" transform="translate(288, 192) scale(2)" fill="rgba(101, 99, 84, 1)"></use><use xlink:href="#SvgjsG1535" transform="translate(288, 240) scale(2)" fill="rgba(101, 99, 84, 1)"></use><use xlink:href="#SvgjsG1536" transform="translate(288, 288) scale(2)" fill="rgba(101, 99, 84, 1)"></use><use xlink:href="#SvgjsG1535" transform="translate(288, 336) scale(2)" fill="rgba(101, 99, 84, 1)"></use><use xlink:href="#SvgjsG1534" transform="translate(288, 384) scale(2)" fill="rgba(101, 99, 84, 1)"></use><use xlink:href="#SvgjsG1536" transform="translate(288, 432) scale(2)" fill="rgba(101, 99, 84, 1)"></use><use xlink:href="#SvgjsG1532" transform="translate(336, 0) scale(2)" fill="rgba(101, 99, 84, 1)"></use><use xlink:href="#SvgjsG1534" transform="translate(336, 48) scale(2)" fill="rgba(101, 99, 84, 1)"></use><use xlink:href="#SvgjsG1534" transform="translate(336, 96) scale(2)" fill="rgba(101, 99, 84, 1)"></use><use xlink:href="#SvgjsG1534" transform="translate(336, 144) scale(2)" fill="rgba(101, 99, 84, 1)"></use><use xlink:href="#SvgjsG1536" transform="translate(336, 192) scale(2)" fill="rgba(101, 99, 84, 1)"></use><use xlink:href="#SvgjsG1533" transform="translate(336, 240) scale(2)" fill="rgba(101, 99, 84, 1)"></use><use xlink:href="#SvgjsG1534" transform="translate(336, 288) scale(2)" fill="rgba(101, 99, 84, 1)"></use><use xlink:href="#SvgjsG1536" transform="translate(336, 336) scale(2)" fill="rgba(101, 99, 84, 1)"></use><use xlink:href="#SvgjsG1534" transform="translate(336, 384) scale(2)" fill="rgba(101, 99, 84, 1)"></use><use xlink:href="#SvgjsG1536" transform="translate(336, 432) scale(2)" fill="rgba(101, 99, 84, 1)"></use><use xlink:href="#SvgjsG1537" transform="translate(384, 0) scale(2)" fill="rgba(101, 99, 84, 1)"></use><use xlink:href="#SvgjsG1533" transform="translate(384, 48) scale(2)" fill="rgba(101, 99, 84, 1)"></use><use xlink:href="#SvgjsG1533" transform="translate(384, 96) scale(2)" fill="rgba(101, 99, 84, 1)"></use><use xlink:href="#SvgjsG1534" transform="translate(384, 144) scale(2)" fill="rgba(101, 99, 84, 1)"></use><use xlink:href="#SvgjsG1535" transform="translate(384, 192) scale(2)" fill="rgba(101, 99, 84, 1)"></use><use xlink:href="#SvgjsG1536" transform="translate(384, 240) scale(2)" fill="rgba(101, 99, 84, 1)"></use><use xlink:href="#SvgjsG1533" transform="translate(384, 288) scale(2)" fill="rgba(101, 99, 84, 1)"></use><use xlink:href="#SvgjsG1536" transform="translate(384, 336) scale(2)" fill="rgba(101, 99, 84, 1)"></use><use xlink:href="#SvgjsG1533" transform="translate(384, 384) scale(2)" fill="rgba(101, 99, 84, 1)"></use><use xlink:href="#SvgjsG1533" transform="translate(384, 432) scale(2)" fill="rgba(101, 99, 84, 1)"></use><use xlink:href="#SvgjsG1534" transform="translate(432, 0) scale(2)" fill="rgba(101, 99, 84, 1)"></use><use xlink:href="#SvgjsG1537" transform="translate(432, 48) scale(2)" fill="rgba(101, 99, 84, 1)"></use><use xlink:href="#SvgjsG1532" transform="translate(432, 96) scale(2)" fill="rgba(101, 99, 84, 1)"></use><use xlink:href="#SvgjsG1532" transform="translate(432, 144) scale(2)" fill="rgba(101, 99, 84, 1)"></use><use xlink:href="#SvgjsG1537" transform="translate(432, 192) scale(2)" fill="rgba(101, 99, 84, 1)"></use><use xlink:href="#SvgjsG1537" transform="translate(432, 240) scale(2)" fill="rgba(101, 99, 84, 1)"></use><use xlink:href="#SvgjsG1534" transform="translate(432, 288) scale(2)" fill="rgba(101, 99, 84, 1)"></use><use xlink:href="#SvgjsG1536" transform="translate(432, 336) scale(2)" fill="rgba(101, 99, 84, 1)"></use><use xlink:href="#SvgjsG1534" transform="translate(432, 384) scale(2)" fill="rgba(101, 99, 84, 1)"></use><use xlink:href="#SvgjsG1536" transform="translate(432, 432) scale(2)" fill="rgba(101, 99, 84, 1)"></use></g></defs></svg>