<svg xmlns="http://www.w3.org/2000/svg" version="1.1" xmlns:xlink="http://www.w3.org/1999/xlink" xmlns:svgjs="http://svgjs.com/svgjs" width="1440" height="560" preserveAspectRatio="none" viewBox="0 0 1440 560"><g mask="url(&quot;#SvgjsMask1024&quot;)" fill="none"><rect width="1440" height="560" x="0" y="0" fill="rgba(194, 128, 48, 0.8)"></rect><path d="M321.506,269.152C344.071,270.124,367.294,263.718,379.93,244.997C394.104,223.998,397.872,196.428,385.525,174.305C372.905,151.692,347.388,139.45,321.506,140.313C297.032,141.129,275.486,156.467,264.48,178.342C254.471,198.236,259.351,221.454,271.194,240.314C282.212,257.859,300.807,268.26,321.506,269.152" fill="rgba(28, 83, 142, 0.4)" class="triangle-float3"></path><path d="M217.566,254.374C265.5,252.396,308.623,228.314,334.109,187.668C361.461,144.047,372.047,90.519,349.256,44.351C323.781,-7.254,275.039,-51.395,217.566,-48.416C163.239,-45.6,133.633,9.126,107.575,56.879C83.059,101.805,58.183,153.312,83.085,198.025C108.431,243.536,165.517,256.521,217.566,254.374" fill="rgba(28, 83, 142, 0.4)" class="triangle-float1"></path><path d="M763.1342853155377 266.26085593384823L655.9023016924986 213.9603229843313 710.8337523660207 373.49283955688736z" fill="rgba(28, 83, 142, 0.4)" class="triangle-float1"></path><path d="M308.6859481112721 364.60336952434784L207.21623053228126 494.47868546057214 337.09154646850556 595.948403039563 438.5612640474964 466.0730871033387z" fill="rgba(28, 83, 142, 0.4)" class="triangle-float3"></path><path d="M738.55 228.69 a160.78 160.78 0 1 0 321.56 0 a160.78 160.78 0 1 0 -321.56 0z" fill="rgba(28, 83, 142, 0.4)" class="triangle-float1"></path><path d="M1417.278,462.546C1455.477,463.269,1491.868,446.567,1512.904,414.674C1536.4,379.051,1546.871,333.877,1527.079,296.07C1506.015,255.833,1462.69,232.674,1417.278,232.003C1370.64,231.314,1322.567,251.021,1301.712,292.742C1282.344,331.49,1303.346,375.358,1327.719,411.17C1348.473,441.665,1380.398,461.848,1417.278,462.546" fill="rgba(28, 83, 142, 0.4)" class="triangle-float1"></path><path d="M645.837,258.864C670.025,257.903,685.74,236.452,697.93,215.538C710.242,194.414,721.127,170.165,710.319,148.234C698.466,124.183,672.647,109.431,645.837,109.833C619.659,110.226,597.112,127.11,584.622,150.12C572.712,172.061,573.799,198.228,586.045,219.983C598.545,242.188,620.376,259.876,645.837,258.864" fill="rgba(28, 83, 142, 0.4)" class="triangle-float1"></path><path d="M219.612,478.73C238.929,477.102,253.899,463.629,263.456,446.762C272.851,430.181,276.806,410.421,267.846,393.6C258.38,375.829,239.735,365.144,219.612,364.45C198.155,363.71,176.908,372.033,165.248,390.061C152.538,409.713,148.542,435.465,160.775,455.417C172.593,474.693,197.082,480.629,219.612,478.73" fill="rgba(28, 83, 142, 0.4)" class="triangle-float3"></path><path d="M588.45,754.1C635.909,753.377,666.374,709.459,689.766,668.158C712.7,627.666,733.615,579.586,710.005,539.484C686.609,499.746,634.562,495.693,588.45,496.073C543.24,496.446,493.849,502.854,470.32,541.461C446.083,581.231,459.027,630.617,481.644,671.329C505.089,713.53,540.18,754.835,588.45,754.1" fill="rgba(28, 83, 142, 0.4)" class="triangle-float2"></path><path d="M1010.02 59.34 a185.43 185.43 0 1 0 370.86 0 a185.43 185.43 0 1 0 -370.86 0z" fill="rgba(28, 83, 142, 0.4)" class="triangle-float3"></path><path d="M237.23224632923063 378.53636832489417L114.60126590725031 428.08250051525187 164.147398097608 550.7134809372321 286.77837851958833 501.1673487468745z" fill="rgba(28, 83, 142, 0.4)" class="triangle-float3"></path><path d="M1034.5542290773146 387.8618311702222L1156.0155241683274 427.3269982752495 1195.4806912733548 305.86570318423674 1074.0193961823418 266.4005360792095z" fill="rgba(28, 83, 142, 0.4)" class="triangle-float1"></path><path d="M1377.395015166354 480.8363204228133L1466.5714468333135 473.0343935982601 1410.280340763004 343.17070951009737z" fill="rgba(28, 83, 142, 0.4)" class="triangle-float2"></path><path d="M260.8167680337973 111.87176935424105L448.56981443533095 128.47834979919054 381.55326658600916-22.04328113049769z" fill="rgba(28, 83, 142, 0.4)" class="triangle-float2"></path><path d="M794.794232918858 431.28731304080947L675.3872733265578 474.74789209663396 838.2548119746825 550.6942726331097z" fill="rgba(28, 83, 142, 0.4)" class="triangle-float1"></path><path d="M719.2917616426988 219.46724127722212L724.0894396405693 311.01239093829207 859.0083251332389 258.0432991109515z" fill="rgba(28, 83, 142, 0.4)" class="triangle-float3"></path></g><defs><mask id="SvgjsMask1024"><rect width="1440" height="560" fill="#ffffff"></rect></mask><style>
            @keyframes float1 {
                0%{transform: translate(0, 0)}
                50%{transform: translate(-10px, 0)}
                100%{transform: translate(0, 0)}
            }

            .triangle-float1 {
                animation: float1 5s infinite;
            }

            @keyframes float2 {
                0%{transform: translate(0, 0)}
                50%{transform: translate(-5px, -5px)}
                100%{transform: translate(0, 0)}
            }

            .triangle-float2 {
                animation: float2 4s infinite;
            }

            @keyframes float3 {
                0%{transform: translate(0, 0)}
                50%{transform: translate(0, -10px)}
                100%{transform: translate(0, 0)}
            }

            .triangle-float3 {
                animation: float3 6s infinite;
            }
        </style></defs></svg>